<svg xmlns="http://www.w3.org/2000/svg" width="16px" height="16px" viewBox="0 0 2048 2048">
	<circle fill-opacity="1" r="896" cx="1024" cy="1024" fill="#40b6e0" style="stroke: rgb(64, 182, 224); stroke-width: 256px; stroke-opacity: 1;"></circle>
	<g transform="scale(0.54)"><path fill-opacity="0.7" transform="translate(676.89, 2580) rotate(180) scale(-1, 1)" fill="#231f20" d="M518 242l506 1251h301l-645 -1493h-412l-65 1493h291z"></path><path fill-opacity="0.7" transform="translate(1909.8899999999999, 2580) rotate(180) scale(-1, 1)" fill="#231f20" d="M524 1227l-186 -961h96q112 0 189 44t120 132q52 106 84.5 252.5t32.5 272.5q0 132 -62.5 196t-191.5 64h-82zM283 1493h315q285 0 426 -123t141 -371q0 -87 -13.5 -185.5t-41.5 -211.5q-37 -151 -89 -256t-124 -174q-94 -92 -225 -132t-350 -40h-330z"></path></g>
</svg>